<svg xmlns="http://www.w3.org/2000/svg" xmlns:xlink="http://www.w3.org/1999/xlink" width="171" zoomAndPan="magnify" viewBox="0 0 128.25 128.250003" height="171" preserveAspectRatio="xMidYMid meet" version="1.0"><defs><g/><clipPath id="beaad4beaf"><path d="M 0 42 L 127.503906 42 L 127.503906 86 L 0 86 Z M 0 42 " clip-rule="nonzero"/></clipPath><clipPath id="aab961cee1"><path d="M 3 85 L 124 85 L 124 127.503906 L 3 127.503906 Z M 3 85 " clip-rule="nonzero"/></clipPath></defs><g fill="#000000" fill-opacity="1"><g transform="translate(63.61607, 110.946433)"><g><path d="M 3.015625 0.09375 C 2.640625 0.09375 2.304688 0.0195312 2.015625 -0.125 C 1.722656 -0.28125 1.5 -0.492188 1.34375 -0.765625 C 1.195312 -1.035156 1.125 -1.34375 1.125 -1.6875 C 1.125 -2.03125 1.195312 -2.335938 1.34375 -2.609375 C 1.5 -2.878906 1.722656 -3.09375 2.015625 -3.25 C 2.304688 -3.40625 2.640625 -3.484375 3.015625 -3.484375 C 3.398438 -3.484375 3.734375 -3.40625 4.015625 -3.25 C 4.304688 -3.09375 4.523438 -2.878906 4.671875 -2.609375 C 4.828125 -2.347656 4.90625 -2.046875 4.90625 -1.703125 C 4.90625 -1.179688 4.734375 -0.75 4.390625 -0.40625 C 4.046875 -0.0703125 3.585938 0.09375 3.015625 0.09375 Z M 3.015625 0.09375 "/></g></g></g><g clip-path="url(#beaad4beaf)"><path fill="#ffffff" d="M 3.625 42.5 L 123.878906 42.5 C 126.230469 49.140625 127.503906 56.296875 127.503906 63.753906 C 127.503906 71.210938 126.230469 78.363281 123.878906 85.003906 L 3.625 85.003906 C 1.273438 78.363281 0 71.210938 0 63.753906 C 0 56.296875 1.273438 49.140625 3.625 42.5 Z M 3.625 42.5 " fill-opacity="1" fill-rule="evenodd"/></g><path fill="#e94b35" d="M 123.878906 42.5 L 3.625 42.5 C 12.382812 17.738281 36 0 63.753906 0 C 91.503906 0 115.121094 17.738281 123.878906 42.5 Z M 123.878906 42.5 " fill-opacity="1" fill-rule="evenodd"/><g clip-path="url(#aab961cee1)"><path fill="#000000" d="M 3.625 85.003906 L 123.878906 85.003906 C 115.121094 109.769531 91.503906 127.503906 63.753906 127.503906 C 36 127.503906 12.382812 109.769531 3.625 85.003906 Z M 3.625 85.003906 " fill-opacity="1" fill-rule="evenodd"/></g><path fill="#c09300" d="M 77.738281 77.035156 L 78.183594 76.828125 L 77.1875 54.09375 C 77.101562 52.378906 76.300781 51.480469 74.945312 51.382812 C 73.90625 51.3125 72.578125 51.730469 71.210938 52.460938 C 69.078125 53.777344 66.5625 53.886719 63.683594 52.933594 C 60.640625 53.886719 58.136719 53.777344 56.003906 52.476562 C 54.636719 51.730469 53.308594 51.3125 52.269531 51.382812 C 50.914062 51.480469 50.109375 52.378906 50.027344 54.09375 L 49.019531 76.828125 L 49.460938 77.035156 L 57.816406 69.8125 L 61.96875 69.8125 L 60.972656 75.429688 L 61.621094 76.039062 L 62.300781 75.566406 L 63.144531 69.8125 L 63.308594 69.8125 L 62.949219 75.566406 L 63.601562 76.355469 L 64.265625 75.566406 L 63.90625 69.8125 L 64.070312 69.8125 L 64.914062 75.566406 L 65.59375 76.039062 L 66.242188 75.429688 L 65.246094 69.8125 L 69.578125 69.8125 Z M 77.738281 77.035156 " fill-opacity="1" fill-rule="nonzero"/><path fill="#ffffff" d="M 52.296875 51.910156 C 53.222656 51.855469 54.46875 52.242188 55.742188 52.933594 C 58.011719 54.316406 60.679688 54.441406 63.683594 53.429688 C 66.53125 54.441406 69.203125 54.316406 71.484375 52.933594 C 72.746094 52.242188 73.988281 51.855469 74.902344 51.910156 C 75.941406 51.992188 76.550781 52.613281 76.648438 53.972656 C 76.164062 53.679688 75.5 53.320312 75.222656 53.320312 L 68.59375 57.636719 L 58.550781 57.636719 L 51.921875 53.320312 C 51.660156 53.320312 51.050781 53.652344 50.582031 53.929688 C 50.679688 52.601562 51.273438 51.992188 52.296875 51.910156 Z M 52.296875 51.910156 " fill-opacity="1" fill-rule="evenodd"/><path fill="#c09300" d="M 58.910156 62.949219 L 59.351562 62.851562 L 63.210938 67.183594 L 60.902344 77.199219 L 60.597656 77.40625 L 55.175781 76.617188 L 54.96875 76.273438 Z M 58.910156 62.949219 " fill-opacity="1" fill-rule="nonzero"/><path fill="#c09300" d="M 68.304688 62.949219 L 72.246094 76.273438 L 72.027344 76.617188 L 66.601562 77.40625 L 66.3125 77.199219 L 64.054688 66.949219 L 67.859375 62.851562 Z M 68.304688 62.949219 " fill-opacity="1" fill-rule="nonzero"/><path fill="#ffffff" d="M 55.5625 76.132812 L 60.445312 76.839844 L 62.757812 67.308594 L 59.285156 63.558594 Z M 55.5625 76.132812 " fill-opacity="1" fill-rule="evenodd"/><path fill="#ffffff" d="M 64.511719 67.058594 L 66.769531 76.839844 L 71.652344 76.132812 L 67.929688 63.542969 Z M 64.511719 67.058594 " fill-opacity="1" fill-rule="evenodd"/><path fill="#c09300" d="M 74.695312 77.476562 C 75.015625 77.503906 75.25 77.699219 75.539062 78.058594 C 75.582031 78.113281 75.582031 78.113281 75.621094 78.167969 C 75.832031 78.402344 75.925781 78.472656 76.050781 78.445312 L 76.105469 78.957031 C 76.011719 78.957031 75.996094 78.984375 75.925781 79.246094 C 75.898438 79.371094 75.886719 79.441406 75.859375 79.523438 C 75.746094 79.882812 75.554688 80.132812 75.222656 80.285156 C 75.195312 81.128906 74.945312 81.476562 74.046875 81.640625 C 71.789062 82.234375 67.929688 82.566406 63.601562 82.566406 C 59.285156 82.566406 55.410156 82.234375 53.210938 81.640625 C 52.269531 81.476562 52.019531 81.128906 51.992188 80.285156 C 51.660156 80.132812 51.464844 79.882812 51.355469 79.523438 C 51.328125 79.441406 51.3125 79.371094 51.273438 79.246094 C 51.21875 78.984375 51.191406 78.957031 51.09375 78.957031 L 51.164062 78.445312 C 51.285156 78.472656 51.382812 78.402344 51.578125 78.167969 C 51.617188 78.113281 51.617188 78.113281 51.660156 78.058594 C 51.964844 77.699219 52.199219 77.503906 52.519531 77.476562 C 52.601562 77.019531 52.878906 76.703125 53.308594 76.550781 C 53.167969 76.285156 53.195312 75.996094 53.375 75.746094 C 53.597656 75.414062 54.054688 75.222656 54.46875 75.304688 C 55.574219 75.648438 56.847656 75.941406 58.039062 76.09375 C 59.753906 76.316406 60.972656 76.382812 61.980469 76.257812 C 62.5625 76.257812 62.976562 76.8125 62.867188 77.296875 C 63.144531 77.3125 63.378906 77.324219 63.601562 77.324219 C 63.863281 77.324219 64.097656 77.324219 64.347656 77.324219 C 64.222656 76.828125 64.664062 76.257812 65.300781 76.257812 C 66.242188 76.382812 67.460938 76.300781 69.175781 76.09375 C 70.367188 75.941406 71.636719 75.648438 72.773438 75.304688 C 73.160156 75.222656 73.601562 75.414062 73.839844 75.746094 C 74.019531 75.996094 74.046875 76.285156 73.90625 76.550781 C 74.335938 76.703125 74.613281 77.019531 74.695312 77.476562 Z M 74.695312 77.476562 " fill-opacity="1" fill-rule="nonzero"/><path fill="#ffffff" d="M 75.222656 78.5 C 75.179688 78.445312 75.179688 78.445312 75.136719 78.402344 C 74.863281 78.070312 74.722656 77.976562 74.503906 78.03125 L 74.183594 77.765625 C 74.183594 77.269531 73.90625 77.019531 73.382812 76.964844 L 73.257812 76.480469 C 73.476562 76.328125 73.507812 76.191406 73.410156 76.050781 C 73.285156 75.886719 73.0625 75.789062 72.898438 75.816406 C 71.761719 76.164062 70.460938 76.453125 69.246094 76.617188 C 67.488281 76.839844 66.230469 76.910156 65.261719 76.785156 C 64.902344 76.785156 64.71875 77.1875 64.996094 77.367188 L 64.859375 77.851562 C 64.457031 77.863281 64.042969 77.863281 63.601562 77.863281 C 63.242188 77.851562 62.867188 77.835938 62.394531 77.808594 L 62.246094 77.339844 C 62.480469 77.160156 62.285156 76.785156 62.007812 76.785156 C 60.984375 76.910156 59.726562 76.839844 57.96875 76.617188 C 56.75 76.453125 55.4375 76.164062 54.332031 75.816406 C 54.152344 75.789062 53.914062 75.886719 53.804688 76.050781 C 53.707031 76.191406 53.734375 76.328125 53.957031 76.480469 L 53.832031 76.964844 C 53.308594 77.019531 53.015625 77.269531 53.015625 77.765625 L 52.699219 78.03125 C 52.476562 77.976562 52.351562 78.070312 52.074219 78.402344 C 52.035156 78.445312 52.035156 78.445312 51.992188 78.5 C 51.882812 78.625 51.785156 78.734375 51.6875 78.804688 C 51.730469 78.902344 51.769531 79 51.796875 79.121094 C 51.828125 79.246094 51.839844 79.304688 51.867188 79.359375 C 51.949219 79.621094 52.0625 79.773438 52.339844 79.855469 L 52.519531 80.105469 C 52.519531 80.851562 52.601562 81.003906 53.335938 81.117188 C 55.492188 81.710938 59.324219 82.042969 63.601562 82.042969 C 67.890625 82.042969 71.707031 81.710938 73.933594 81.117188 C 74.613281 81.003906 74.695312 80.851562 74.695312 80.105469 L 74.875 79.855469 C 75.136719 79.773438 75.261719 79.621094 75.347656 79.359375 C 75.375 79.304688 75.386719 79.246094 75.414062 79.121094 C 75.441406 79 75.484375 78.902344 75.511719 78.804688 C 75.414062 78.734375 75.316406 78.625 75.222656 78.5 Z M 75.222656 78.5 " fill-opacity="1" fill-rule="evenodd"/><path fill="#ffffff" d="M 63.601562 69.203125 C 70.335938 64.265625 69.769531 57.027344 69.769531 57.027344 C 69.589844 57.070312 69.425781 57.082031 69.246094 57.082031 C 67.820312 57.082031 64.457031 56.308594 63.667969 55.328125 C 62.824219 56.226562 59.378906 57.082031 57.96875 57.082031 C 57.789062 57.082031 57.609375 57.070312 57.445312 57.027344 C 57.445312 57.027344 56.863281 64.265625 63.601562 69.203125 Z M 63.601562 69.203125 " fill-opacity="1" fill-rule="nonzero"/><path fill="#c09300" d="M 61.414062 56.972656 C 60.195312 57.332031 58.882812 57.566406 58.164062 57.566406 C 58.09375 57.566406 58.039062 57.554688 57.984375 57.554688 C 57.984375 57.816406 57.996094 58.109375 58.011719 58.371094 C 58.078125 59.324219 58.257812 60.292969 58.523438 61.21875 C 59.089844 63.199219 60.070312 64.96875 61.414062 66.492188 Z M 61.414062 56.972656 " fill-opacity="1" fill-rule="nonzero"/><path fill="#c09300" d="M 65.675781 56.945312 L 65.675781 66.644531 C 67.074219 65.082031 68.097656 63.253906 68.691406 61.21875 C 68.953125 60.292969 69.132812 59.324219 69.1875 58.355469 C 69.21875 58.109375 69.230469 57.832031 69.230469 57.554688 C 69.175781 57.566406 69.105469 57.566406 69.050781 57.566406 C 68.289062 57.566406 66.90625 57.332031 65.675781 56.945312 Z M 65.675781 56.945312 " fill-opacity="1" fill-rule="nonzero"/><path fill="#c09300" d="M 66.4375 54.46875 C 66.476562 54.691406 66.4375 54.898438 66.132812 54.882812 C 65.648438 54.84375 64.761719 54.605469 64.402344 54.191406 C 64.320312 54.273438 63.808594 55.175781 63.753906 55.242188 L 62.742188 54.191406 C 62.507812 54.578125 61.855469 54.925781 60.804688 55.242188 L 61.066406 54.261719 C 61.011719 54.289062 60.390625 54.550781 60.15625 54.605469 C 59.917969 54.675781 58.855469 54.773438 58.648438 54.773438 C 60.085938 53.292969 60.972656 51.992188 61.304688 50.871094 C 61.789062 49.351562 61.855469 47.964844 61.539062 47.539062 C 61.082031 46.902344 60.652344 46.722656 60.210938 47.066406 C 59.976562 47.246094 59.726562 47.109375 59.644531 46.859375 C 59.617188 46.722656 59.601562 46.554688 59.628906 46.363281 C 59.671875 45.933594 59.824219 45.53125 60.085938 45.367188 C 60.515625 45.089844 61.289062 45.101562 62.273438 45.308594 C 62.367188 45.101562 62.589844 44.992188 62.910156 45.003906 C 63.917969 45.0625 65.246094 45.449219 65.6875 45.878906 C 66.214844 46.363281 66.492188 47.46875 66.410156 49.308594 C 66.324219 51.285156 67.113281 53.820312 67.804688 54.109375 L 68.761719 54.773438 C 68.332031 54.882812 66.4375 54.453125 66.4375 54.46875 Z M 66.4375 54.46875 " fill-opacity="1" fill-rule="nonzero"/><path fill="#ffffff" d="M 65.578125 46.636719 C 65.8125 47.136719 65.9375 47.992188 65.882812 49.28125 C 65.800781 50.96875 66.296875 52.988281 66.976562 54 C 66.921875 54 65.8125 53.457031 65.714844 53.515625 C 65.675781 53.554688 65.785156 54.179688 65.828125 54.273438 L 65.828125 54.304688 C 65.566406 54.246094 65.316406 54.136719 65.082031 54 C 64.84375 53.859375 64.445312 53.402344 64.375 53.402344 C 64.320312 53.402344 63.574219 54.261719 63.574219 54.273438 L 62.726562 53.308594 C 61.996094 53.972656 61.621094 54.316406 61.609375 54.332031 L 61.816406 53.308594 C 61.125 53.707031 60.570312 53.957031 60.15625 54.054688 C 60.375 53.761719 60.613281 53.417969 60.859375 53.03125 C 61.289062 52.339844 61.621094 51.675781 61.816406 51.039062 C 62.246094 49.683594 62.367188 48.410156 62.160156 47.648438 C 62.339844 47.566406 62.839844 47.675781 62.839844 47.675781 C 62.0625 46.417969 61.179688 46.113281 60.792969 46.140625 C 60.570312 46.140625 60.417969 46.265625 60.292969 46.417969 C 60.25 46.429688 60.195312 46.457031 60.15625 46.472656 C 60.15625 46.457031 60.15625 46.445312 60.15625 46.417969 C 60.183594 46.125 60.292969 45.863281 60.375 45.808594 C 60.488281 45.738281 60.945312 45.738281 61.496094 45.753906 C 61.648438 45.820312 61.789062 45.917969 61.980469 46.070312 C 62.4375 46.417969 62.796875 46.582031 63.03125 46.542969 C 63.101562 46.542969 63.144531 46.664062 63.210938 46.75 C 63.269531 46.804688 63.253906 46.859375 63.476562 46.859375 C 63.613281 46.859375 63.683594 46.609375 63.78125 46.542969 C 63.890625 46.445312 64.097656 46.417969 64.238281 46.375 C 64.527344 46.304688 64.664062 46.320312 64.886719 46.292969 C 64.929688 46.292969 64.996094 46.292969 65.09375 46.292969 C 65.355469 46.429688 65.550781 46.554688 65.578125 46.636719 Z M 65.578125 46.636719 " fill-opacity="1" fill-rule="evenodd"/></svg>