<svg xmlns="http://www.w3.org/2000/svg" xmlns:xlink="http://www.w3.org/1999/xlink" width="171" zoomAndPan="magnify" viewBox="0 0 128.25 128.250003" height="171" preserveAspectRatio="xMidYMid meet" version="1.0"><defs><g/><clipPath id="dcd2603395"><path d="M 74 71 L 126.757812 71 L 126.757812 127 L 74 127 Z M 74 71 " clip-rule="nonzero"/></clipPath><clipPath id="c7feaa7d31"><path d="M 74 1 L 126.757812 1 L 126.757812 57 L 74 57 Z M 74 1 " clip-rule="nonzero"/></clipPath><clipPath id="c5f5c52818"><path d="M 0 0 L 126.757812 0 L 126.757812 127.503906 L 0 127.503906 Z M 0 0 " clip-rule="nonzero"/></clipPath></defs><g fill="#000000" fill-opacity="1"><g transform="translate(90.994278, 108.431378)"><g><path d="M 3.015625 0.09375 C 2.640625 0.09375 2.304688 0.0195312 2.015625 -0.125 C 1.722656 -0.28125 1.5 -0.492188 1.34375 -0.765625 C 1.195312 -1.035156 1.125 -1.34375 1.125 -1.6875 C 1.125 -2.03125 1.195312 -2.335938 1.34375 -2.609375 C 1.5 -2.878906 1.722656 -3.09375 2.015625 -3.25 C 2.304688 -3.40625 2.640625 -3.484375 3.015625 -3.484375 C 3.398438 -3.484375 3.734375 -3.40625 4.015625 -3.25 C 4.304688 -3.09375 4.523438 -2.878906 4.671875 -2.609375 C 4.828125 -2.347656 4.90625 -2.046875 4.90625 -1.703125 C 4.90625 -1.179688 4.734375 -0.75 4.390625 -0.40625 C 4.046875 -0.0703125 3.585938 0.09375 3.015625 0.09375 Z M 3.015625 0.09375 "/></g></g></g><path fill="#ffffff" d="M 52.359375 1.292969 C 50.40625 1.640625 48.46875 2.078125 46.554688 2.609375 L 46.554688 42.554688 L 14.257812 23.847656 C 12.757812 25.710938 11.339844 27.664062 10.03125 29.734375 C 9.515625 30.546875 9.03125 31.375 8.554688 32.199219 L 43.695312 52.558594 L 32.867188 52.558594 L 6.066406 37.03125 C 5.515625 38.21875 5 39.414062 4.527344 40.621094 L 25.128906 52.558594 L 1.167969 52.558594 C 0.9375 53.839844 0.738281 55.125 0.589844 56.410156 L 52.359375 56.410156 L 52.359375 1.292969 " fill-opacity="1" fill-rule="nonzero"/><g clip-path="url(#dcd2603395)"><path fill="#ffffff" d="M 74.40625 126.167969 C 76.355469 125.820312 78.292969 125.382812 80.207031 124.855469 L 80.207031 85.359375 L 112.25 103.921875 C 113.839844 101.96875 115.347656 99.910156 116.726562 97.726562 C 117.171875 97.023438 117.585938 96.3125 118 95.601562 L 82.28125 74.90625 L 93.109375 74.90625 L 120.523438 90.785156 C 121.082031 89.601562 121.601562 88.410156 122.082031 87.207031 L 100.851562 74.90625 L 125.59375 74.90625 C 125.820312 73.628906 126.019531 72.34375 126.167969 71.058594 L 74.40625 71.058594 L 74.40625 126.167969 " fill-opacity="1" fill-rule="nonzero"/></g><path fill="#ffffff" d="M 0.609375 71.058594 C 0.761719 72.347656 0.949219 73.628906 1.175781 74.90625 L 23.585938 74.90625 L 4.25 86.113281 C 5.429688 89.265625 6.871094 92.324219 8.550781 95.269531 L 43.699219 74.90625 L 46.554688 74.90625 L 46.554688 79.53125 L 11.433594 99.875 C 12.167969 100.941406 12.953125 101.980469 13.761719 103.007812 L 46.554688 84.007812 L 46.554688 124.867188 C 48.472656 125.398438 50.414062 125.832031 52.359375 126.175781 L 52.359375 71.058594 L 0.609375 71.058594 " fill-opacity="1" fill-rule="nonzero"/><g clip-path="url(#c7feaa7d31)"><path fill="#ffffff" d="M 126.148438 56.410156 C 125.996094 55.117188 125.808594 53.835938 125.582031 52.558594 L 102.398438 52.558594 L 122.375 40.984375 C 121.171875 37.84375 119.707031 34.792969 118.011719 31.859375 L 82.289062 52.558594 L 80.207031 52.558594 L 80.207031 47.492188 L 115.097656 27.273438 C 114.351562 26.210938 113.566406 25.167969 112.753906 24.148438 L 80.207031 43.003906 L 80.207031 2.597656 C 78.285156 2.0625 76.347656 1.628906 74.40625 1.285156 L 74.40625 56.410156 L 126.148438 56.410156 " fill-opacity="1" fill-rule="nonzero"/></g><path fill="#202149" d="M 4.527344 40.621094 C 3 44.527344 1.886719 48.523438 1.167969 52.558594 L 25.128906 52.558594 L 4.527344 40.621094 " fill-opacity="1" fill-rule="nonzero"/><path fill="#202149" d="M 1.175781 74.90625 C 1.859375 78.726562 2.886719 82.476562 4.25 86.113281 L 23.585938 74.90625 L 1.175781 74.90625 " fill-opacity="1" fill-rule="nonzero"/><path fill="#202149" d="M 13.761719 103.007812 C 18.054688 108.46875 23.3125 113.320312 29.5 117.261719 C 34.917969 120.71875 40.671875 123.234375 46.554688 124.867188 L 46.554688 84.007812 L 13.761719 103.007812 " fill-opacity="1" fill-rule="nonzero"/><path fill="#202149" d="M 80.207031 124.855469 C 92.484375 121.457031 103.765625 114.332031 112.25 103.921875 L 80.207031 85.359375 L 80.207031 124.855469 " fill-opacity="1" fill-rule="nonzero"/><path fill="#202149" d="M 112.753906 24.148438 C 108.503906 18.8125 103.328125 14.066406 97.261719 10.199219 C 91.839844 6.746094 86.089844 4.230469 80.207031 2.597656 L 80.207031 43.003906 L 112.753906 24.148438 " fill-opacity="1" fill-rule="nonzero"/><path fill="#202149" d="M 46.554688 2.609375 C 34.15625 6.039062 22.769531 13.265625 14.257812 23.847656 L 46.554688 42.554688 L 46.554688 2.609375 " fill-opacity="1" fill-rule="nonzero"/><path fill="#202149" d="M 122.082031 87.207031 C 123.683594 83.1875 124.851562 79.066406 125.59375 74.90625 L 100.851562 74.90625 L 122.082031 87.207031 " fill-opacity="1" fill-rule="nonzero"/><path fill="#202149" d="M 125.582031 52.558594 C 124.875 48.613281 123.804688 44.738281 122.375 40.984375 L 102.398438 52.558594 L 125.582031 52.558594 " fill-opacity="1" fill-rule="nonzero"/><path fill="#e52c33" d="M 82.28125 74.90625 L 118 95.601562 C 118.917969 94.019531 119.753906 92.414062 120.523438 90.785156 L 93.109375 74.90625 L 82.28125 74.90625 " fill-opacity="1" fill-rule="nonzero"/><path fill="#e52c33" d="M 80.207031 52.558594 L 82.289062 52.558594 L 118.011719 31.859375 C 117.105469 30.296875 116.140625 28.765625 115.097656 27.273438 L 80.207031 47.492188 L 80.207031 52.558594 " fill-opacity="1" fill-rule="nonzero"/><path fill="#e52c33" d="M 43.695312 52.558594 L 8.554688 32.199219 C 7.648438 33.789062 6.828125 35.398438 6.066406 37.03125 L 32.867188 52.558594 L 43.695312 52.558594 " fill-opacity="1" fill-rule="nonzero"/><path fill="#e52c33" d="M 46.554688 74.90625 L 43.699219 74.90625 L 8.550781 95.269531 C 9.449219 96.835938 10.402344 98.378906 11.433594 99.875 L 46.554688 79.53125 L 46.554688 74.90625 " fill-opacity="1" fill-rule="nonzero"/><g clip-path="url(#c5f5c52818)"><path fill="#e52c33" d="M 126.148438 56.410156 L 74.40625 56.410156 L 74.40625 1.285156 C 67.054688 -0.0195312 59.589844 0.00390625 52.359375 1.292969 L 52.359375 56.410156 L 0.589844 56.410156 C 0.0273438 61.300781 0.046875 66.214844 0.609375 71.058594 L 52.359375 71.058594 L 52.359375 126.175781 C 59.707031 127.480469 67.171875 127.457031 74.40625 126.167969 L 74.40625 71.058594 L 126.167969 71.058594 C 126.730469 66.167969 126.710938 61.253906 126.148438 56.410156 " fill-opacity="1" fill-rule="nonzero"/></g></svg>