<svg width="24" height="24" viewBox="0 0 24 24" fill="none" xmlns="http://www.w3.org/2000/svg">
<path d="M21.0001 8.99992C21.0001 17.1801 12.0001 20.9999 12.0001 20.9999C12.0001 20.9999 3.0001 17.2199 3.0001 8.99992C2.94274 7.74238 3.38269 6.5128 4.22479 5.57709C5.0669 4.64139 6.24349 4.07476 7.5001 3.99976C8.75671 4.07476 9.93329 4.64139 10.7754 5.57709C11.6175 6.5128 12.0575 7.74238 12.0001 8.99992C11.9427 7.74238 12.3827 6.5128 13.2248 5.57709C14.0669 4.64139 15.2435 4.07476 16.5001 3.99976C17.7567 4.07476 18.9333 4.64139 19.7754 5.57709C20.6175 6.5128 21.0575 7.74238 21.0001 8.99992Z" stroke="#6B7280" stroke-width="1.5" stroke-linecap="round" stroke-linejoin="round"/>
</svg>
