<svg width="24" height="24" viewBox="0 0 24 24" fill="none" xmlns="http://www.w3.org/2000/svg">
<path d="M9.24976 3.51294C10.4218 2.60494 12.296 2.50268 13.5974 3.24438L13.8494 3.40454H13.8503L19.6101 7.43481C20.0387 7.73495 20.4587 8.23867 20.7722 8.83911C21.0859 9.4399 21.2595 10.0738 21.2595 10.5999V17.3801C21.2594 19.5157 19.5259 21.25 17.3904 21.2502H6.61011C4.47657 21.2502 2.74022 19.5081 2.73999 17.3704V10.47C2.73999 9.98332 2.89635 9.38195 3.18237 8.80103C3.43243 8.29315 3.75727 7.85057 4.09546 7.54419L4.24097 7.42114L9.24878 3.51196L9.24976 3.51294ZM11.9998 13.5002C11.1756 13.5004 10.4998 14.1761 10.4998 15.0002V18.0002C10.4999 18.8242 11.1758 19.5001 11.9998 19.5002C12.8239 19.5002 13.4996 18.8243 13.4998 18.0002V15.0002C13.4998 14.176 12.824 13.5002 11.9998 13.5002Z" stroke="#6B7280" stroke-width="1.5"/>
</svg>
