<svg width="24" height="24" viewBox="0 0 31 31" fill="none" xmlns="http://www.w3.org/2000/svg">
<path d="M25.7817 11.5733C24.9162 10.6175 23.6117 10.0621 21.8033 9.86835V8.88668C21.8033 7.1171 21.0542 5.4121 19.7367 4.22376C18.4062 3.0096 16.6754 2.44126 14.88 2.60918C11.7929 2.90626 9.19666 5.89001 9.19666 9.11918V9.86835C7.38833 10.0621 6.08375 10.6175 5.21833 11.5733C3.96541 12.9683 4.00416 14.8283 4.14625 16.12L5.05041 23.3146C5.32166 25.8333 6.34208 28.4167 11.8962 28.4167H19.1037C24.6579 28.4167 25.6783 25.8333 25.9496 23.3275L26.8538 16.1071C26.9958 14.8283 27.0217 12.9683 25.7817 11.5733ZM15.0608 4.4046C16.3525 4.28835 17.5796 4.68876 18.5354 5.55418C19.4783 6.40668 20.0079 7.62085 20.0079 8.88668V9.79085H10.9921V9.11918C10.9921 6.82001 12.8908 4.61126 15.0608 4.4046ZM10.8758 16.9854H10.8629C10.1525 16.9854 9.57125 16.4042 9.57125 15.6938C9.57125 14.9833 10.1525 14.4021 10.8629 14.4021C11.5862 14.4021 12.1675 14.9833 12.1675 15.6938C12.1675 16.4042 11.5862 16.9854 10.8758 16.9854ZM19.9175 16.9854H19.9046C19.1942 16.9854 18.6129 16.4042 18.6129 15.6938C18.6129 14.9833 19.1942 14.4021 19.9046 14.4021C20.6279 14.4021 21.2092 14.9833 21.2092 15.6938C21.2092 16.4042 20.6279 16.9854 19.9175 16.9854Z" fill="#2D5386"/>
</svg>
