<svg width="24" height="24" viewBox="0 0 24 24" fill="none" xmlns="http://www.w3.org/2000/svg">
<path d="M11.5 16.5C13.6544 16.5 15.3889 14.8331 15.4951 12.707V12.6982C15.4461 13.6869 15.0314 14.6248 14.3281 15.3281C13.578 16.0783 12.5609 16.5 11.5 16.5ZM11.5 16.5C9.3456 16.5 7.61111 14.8331 7.50488 12.707V12.6982C7.55064 13.6211 7.91496 14.4997 8.53516 15.1846L8.67188 15.3281C9.42202 16.0783 10.4391 16.5 11.5 16.5ZM11.5 8.5C13.7239 8.5 15.5 10.2761 15.5 12.5L15.4951 12.3018C15.4494 11.3789 15.085 10.5003 14.4648 9.81543L14.3281 9.67188C13.578 8.92173 12.5609 8.5 11.5 8.5ZM11.5 8.5C10.5054 8.5 9.54921 8.87069 8.81543 9.53516L8.67188 9.67188C7.92173 10.422 7.5 11.4391 7.5 12.5L7.50488 12.293C7.61111 10.1669 9.3456 8.5 11.5 8.5Z" fill="black" stroke="black"/>
</svg>
