<svg width="16" height="16" viewBox="0 0 16 16" fill="none" xmlns="http://www.w3.org/2000/svg">
<rect width="16" height="16" rx="2" fill="#FFC300"/>
<path d="M8.86495 3.75507L9.74495 5.51507C9.86495 5.76007 10.185 5.99507 10.455 6.04007L12.05 6.30507C13.07 6.47507 13.31 7.21507 12.575 7.94507L11.335 9.18507C11.125 9.39507 11.01 9.80007 11.075 10.0901L11.43 11.6251C11.71 12.8401 11.065 13.3101 9.98995 12.6751L8.49495 11.7901C8.22495 11.6301 7.77995 11.6301 7.50495 11.7901L6.00995 12.6751C4.93995 13.3101 4.28995 12.8351 4.56995 11.6251L4.92495 10.0901C4.98995 9.80007 4.87495 9.39507 4.66495 9.18507L3.42495 7.94507C2.69495 7.21507 2.92995 6.47507 3.94995 6.30507L5.54495 6.04007C5.80995 5.99507 6.12995 5.76007 6.24995 5.51507L7.12995 3.75507C7.60995 2.80007 8.38995 2.80007 8.86495 3.75507Z" fill="white"/>
</svg>
